<svg xmlns="http://www.w3.org/2000/svg" width="355" height="355" viewBox="0 0 355 355" version="1.1">
	<path d="M 173.500 6.676 C 149.360 9.701, 119.293 15.233, 114.008 17.621 C 109.179 19.803, 87.766 34.527, 76.140 43.659 C 70.838 47.824, 58.249 59.535, 48.165 69.684 C 33.978 83.962, 29.311 89.309, 27.538 93.319 C 24.216 100.833, 15.483 126.378, 10.931 141.901 C 7.444 153.788, 7 156.499, 7.004 165.901 C 7.015 195.190, 9.635 210.830, 19.434 240.126 C 27.304 263.651, 28.409 265.730, 40.304 279.411 C 58.640 300.498, 71.681 312.277, 87.579 322.111 C 95.236 326.847, 106.350 333.305, 112.277 336.464 C 121.734 341.502, 124.244 342.380, 132.777 343.631 C 147.225 345.748, 178.293 346.505, 192.500 345.085 C 209.347 343.401, 237.921 338.994, 241.500 337.528 C 245.062 336.068, 264.464 321.683, 278.500 310.093 C 291.358 299.477, 320.204 272.793, 323.990 268.012 C 329.961 260.474, 343.986 211.731, 346.438 190 C 347.213 183.125, 348.136 171.425, 348.488 164 L 349.128 150.500 344.449 137 C 336.876 115.153, 326.935 93.068, 320.973 84.844 C 313.605 74.681, 306.040 65.243, 295.849 53.500 C 287.287 43.634, 286.959 43.384, 271.336 34.822 C 238.623 16.895, 226.404 12.616, 194.531 7.927 C 181.756 6.047, 179.560 5.916, 173.500 6.676 M 191.048 15.500 C 194.072 18.800, 197.899 23.169, 199.552 25.210 C 202.259 28.551, 203.996 29.379, 217.029 33.547 C 224.988 36.092, 239.936 41.326, 250.248 45.178 L 268.995 52.182 271.924 49.718 L 274.852 47.254 272.351 46.114 C 270.976 45.487, 269.364 45.275, 268.771 45.642 C 268.171 46.013, 267.977 45.847, 268.334 45.268 C 268.849 44.435, 265.778 42.868, 264.112 43.114 C 263.898 43.145, 263.448 42.771, 263.112 42.283 C 261.909 40.539, 254.679 37.783, 251.122 37.714 C 249.130 37.675, 246.020 38.279, 244.211 39.056 L 240.922 40.468 234.711 33.745 L 228.500 27.022 217.054 23.908 C 210.759 22.195, 204.016 19.940, 202.069 18.897 C 200.122 17.854, 197.417 17, 196.057 17 C 194.581 17, 191.966 15.489, 189.567 13.250 C 187.077 10.926, 187.640 11.781, 191.048 15.500 M 158.500 23.706 C 157.400 23.966, 155.825 24.998, 155 25.998 C 153.913 27.315, 150.471 28.274, 142.500 29.480 C 124.956 32.135, 97.259 38, 102.267 38 C 104.662 38, 132.290 43.540, 139.839 45.533 C 150.959 48.470, 151.874 48.521, 152.696 46.250 C 153.045 45.288, 155.281 39.892, 157.665 34.259 C 160.049 28.627, 162 23.789, 162 23.509 C 162 22.958, 161.551 22.983, 158.500 23.706 M 147 31.558 C 146.175 31.737, 140.550 32.644, 134.500 33.573 C 121.348 35.593, 118.944 36.545, 124.529 37.519 C 126.713 37.900, 132.433 39.064, 137.239 40.106 C 142.046 41.148, 146.385 42, 146.881 42 C 147.651 42, 148.597 40.093, 151.717 32.250 C 152.194 31.051, 150.486 30.801, 147 31.558 M 224.441 60.498 C 222.547 61.960, 222.566 62.054, 225.250 64.450 C 226.762 65.800, 227.973 67.263, 227.940 67.702 C 227.907 68.141, 221.495 73.340, 213.690 79.255 C 205.886 85.171, 197.475 91.834, 195 94.062 L 190.500 98.113 199.500 97.560 C 204.450 97.255, 221.454 96.710, 237.287 96.348 C 253.119 95.986, 266.277 95.361, 266.526 94.958 C 266.774 94.556, 261.020 88.655, 253.739 81.844 C 227.388 57.199, 228.072 57.697, 224.441 60.498 M 136.500 66.172 C 126.050 67.706, 110.750 70.208, 102.500 71.732 L 87.500 74.502 82.670 88.001 C 80.013 95.426, 75.226 110.050, 72.031 120.500 C 66.737 137.820, 66.368 139.615, 67.862 140.799 C 71.927 144.022, 121.329 171.083, 122.352 170.647 C 122.984 170.379, 128.225 166.015, 134 160.951 C 139.775 155.887, 145.625 150.780, 147 149.602 C 148.375 148.425, 155.661 142.183, 163.191 135.732 L 176.882 124.002 174.555 117.251 C 173.276 113.538, 168.632 100.600, 164.235 88.500 C 159.838 76.400, 156.074 65.799, 155.871 64.941 C 155.543 63.562, 153.319 63.703, 136.500 66.172 M 298.637 80.500 C 299.034 87.786, 299.758 92.331, 300.781 93.963 C 302.169 96.176, 302.389 96.242, 302.958 94.619 C 303.480 93.131, 304.565 93.930, 309.121 99.157 C 312.163 102.645, 317.476 109.100, 320.929 113.500 C 329.311 124.182, 329.628 124.429, 326.380 117.750 C 324.842 114.588, 323.094 112, 322.497 112 C 321.899 112, 317.192 106.774, 312.038 100.387 C 303.937 90.349, 302.551 88.077, 301.821 83.637 C 301.356 80.812, 301.185 77.600, 301.439 76.500 C 301.694 75.400, 301.032 73.375, 299.970 72 L 298.038 69.500 298.637 80.500 M 224.500 81.085 C 219.550 84.929, 215.387 88.395, 215.249 88.787 C 214.970 89.576, 249.173 89.160, 249.968 88.365 C 250.744 87.589, 236.406 73.994, 234.868 74.047 C 234.116 74.073, 229.450 77.240, 224.500 81.085 M 124.539 76.750 C 117.039 96.195, 99 150.196, 99 153.205 C 99 153.707, 106.313 147.662, 115.250 139.772 C 124.188 131.881, 136.225 121.434, 142 116.556 C 147.775 111.677, 152.610 107.194, 152.745 106.593 C 152.879 105.992, 150.997 103.250, 148.562 100.500 L 144.134 95.500 141.426 98.163 L 138.719 100.827 140.888 103.585 C 142.081 105.102, 142.707 106.652, 142.279 107.030 C 141.850 107.408, 136.325 112.121, 130 117.503 C 123.675 122.884, 117.489 128.199, 116.254 129.314 C 115.019 130.429, 113.769 131.102, 113.477 130.811 C 113.185 130.519, 116.383 120.429, 120.582 108.390 C 131.085 78.280, 130.772 79.511, 128.540 77.044 C 126.276 74.543, 125.415 74.479, 124.539 76.750 M 52 100.513 C 46.775 101.231, 40.052 102.444, 37.059 103.207 C 30.326 104.925, 30.386 104.742, 29.440 126.289 L 28.728 142.500 30.864 140.595 C 32.309 139.306, 33 137.507, 33 135.032 C 33 131.719, 33.920 130.481, 42.750 121.903 C 48.112 116.694, 55.538 109.695, 59.250 106.349 C 62.962 103.003, 66 99.980, 66 99.633 C 66 98.788, 63.306 98.958, 52 100.513 M 40 108.372 L 33.500 109.500 33.193 113.750 C 33.023 116.087, 33.023 119.814, 33.193 122.031 L 33.500 126.061 42.980 116.531 C 53.622 105.832, 53.683 105.998, 40 108.372 M 272.500 129.125 C 261.500 137.937, 251.375 145.655, 250 146.276 C 248.625 146.897, 247.356 147.495, 247.181 147.605 C 247.005 147.715, 247.336 148.637, 247.917 149.653 C 249.064 151.659, 254.347 178.273, 258.507 203 C 259.942 211.525, 261.427 218.786, 261.808 219.137 C 262.467 219.743, 301.099 224.685, 309.500 225.237 L 313.500 225.500 318.833 209.500 C 321.765 200.700, 326.117 185.966, 328.502 176.758 L 332.839 160.016 325.793 150.758 C 313.330 134.383, 295.032 112.980, 293.556 113.051 C 292.975 113.079, 283.500 120.312, 272.500 129.125 M 280.234 145.406 C 276.430 151.765, 276.382 152.130, 279.016 154.514 C 280.969 156.282, 281.077 156.279, 282.484 154.419 C 283.283 153.364, 283.951 152.162, 283.968 151.750 C 284.065 149.476, 286.971 152.205, 295.984 163.030 C 301.493 169.646, 306 175.412, 306 175.843 C 306 176.274, 297.113 175.160, 286.250 173.367 C 275.387 171.574, 266.050 170.089, 265.500 170.066 C 264.950 170.043, 263.489 171.586, 262.253 173.494 L 260.006 176.963 262.253 177.460 C 268.944 178.940, 320.517 187.042, 321.663 186.794 C 323.959 186.296, 286.727 140, 284.031 140 C 283.721 140, 282.012 142.433, 280.234 145.406 M 194.819 164.633 L 192.139 167.316 194.733 170.717 C 197.841 174.791, 200.631 171.659, 172.750 195.391 C 161.338 205.106, 152 213.512, 152 214.072 C 152 214.665, 153.359 214.866, 155.250 214.553 C 157.037 214.257, 163.225 213.541, 169 212.961 C 180.681 211.789, 225.672 206.325, 230.750 205.462 C 232.537 205.158, 234 204.357, 234 203.682 C 234 202.125, 200.358 162.595, 198.719 162.226 C 198.049 162.075, 196.294 163.158, 194.819 164.633 M 18.011 177 C 18.005 178.376, 18.709 182.651, 19.576 186.500 C 20.442 190.350, 21.971 198.450, 22.974 204.500 C 24.891 216.072, 31.901 244.199, 34.257 249.777 C 35.566 252.874, 35.729 252.956, 37.241 251.277 C 38.714 249.641, 38.605 248.466, 35.877 236.500 C 34.247 229.350, 31.351 214.345, 29.442 203.155 L 25.971 182.811 21.996 178.655 C 18.194 174.680, 18.021 174.608, 18.011 177 M 78.655 182.829 C 76.552 185.152, 76.576 185.596, 78.989 188.985 L 80.979 191.779 64.989 207.573 C 56.195 216.259, 49 223.714, 49 224.138 C 49 225.726, 56.263 226.072, 83.734 225.790 L 111.968 225.500 96.924 203.250 C 88.650 191.012, 81.527 181, 81.095 181 C 80.663 181, 79.565 181.823, 78.655 182.829 M 191.201 191.620 C 184.437 197.459, 179.037 202.356, 179.201 202.504 C 179.477 202.752, 203.949 199.909, 213.787 198.486 L 218.074 197.866 214.132 193.183 C 211.963 190.607, 208.684 186.814, 206.844 184.752 L 203.500 181.005 191.201 191.620 M 75.643 208.598 C 70.772 213.285, 66.996 217.329, 67.253 217.586 C 67.510 217.843, 74.526 217.929, 82.844 217.777 L 97.968 217.500 92.234 208.769 C 89.080 203.967, 86.050 200.047, 85.500 200.057 C 84.950 200.068, 80.514 203.911, 75.643 208.598 M 126.500 251.599 C 121.550 256.266, 112.213 264.888, 105.750 270.760 C 99.287 276.632, 94 281.912, 94 282.493 C 94 284.040, 112.020 304.758, 124.608 317.684 L 135.500 328.868 149.953 327.427 C 165.107 325.916, 188.926 322.673, 197.598 320.940 L 202.697 319.921 203.348 307.804 C 203.707 301.139, 203.985 289.119, 203.966 281.093 L 203.932 266.500 189.216 261.698 C 181.122 259.057, 166.463 254.009, 156.640 250.480 C 146.817 246.952, 138.042 243.851, 137.140 243.589 C 136.074 243.280, 132.351 246.082, 126.500 251.599 M 269.021 250.477 C 266.889 252.747, 266.790 253.239, 268.009 255.517 C 268.828 257.047, 268.994 258.362, 268.430 258.858 C 259.319 266.865, 243.252 280.421, 235.185 286.909 C 229.512 291.471, 225.077 295.411, 225.331 295.664 C 226.961 297.294, 293 275.286, 293 273.112 C 293 272.181, 273.267 248.598, 272.181 248.231 C 271.743 248.083, 270.321 249.094, 269.021 250.477 M 260.802 272.338 C 254.368 277.927, 249.487 282.636, 249.956 282.801 C 250.855 283.119, 277.222 274.454, 280.294 272.830 C 281.916 271.973, 281.691 271.409, 277.951 266.941 C 275.675 264.224, 273.518 262.040, 273.157 262.088 C 272.796 262.136, 267.236 266.749, 260.802 272.338 M 115.016 269.765 C 115.039 270.752, 135.289 294.280, 146.500 306.343 L 155.500 316.028 162.292 313.329 L 169.085 310.630 166.667 308.213 C 164.666 306.211, 163.896 305.985, 162.191 306.898 C 161.058 307.504, 159.451 308, 158.619 308 C 157.113 308, 135.528 285.138, 136.303 284.364 C 136.527 284.140, 142.738 286.159, 150.105 288.850 C 157.472 291.541, 169.243 295.609, 176.262 297.889 L 189.024 302.035 192.691 300.154 L 196.358 298.273 181.533 293.561 C 168.667 289.472, 136.420 277.678, 120.250 271.149 C 117.362 269.983, 115.007 269.360, 115.016 269.765 M 58.404 283.208 C 59.452 283.919, 61.927 285.850, 63.904 287.500 C 65.882 289.150, 66.882 289.712, 66.128 288.750 C 64.399 286.546, 65.327 286.526, 72.827 288.612 C 78.558 290.205, 78.650 290.289, 80.943 296.062 C 82.218 299.274, 84.188 303.386, 85.320 305.201 C 86.452 307.015, 87.485 309.104, 87.614 309.842 C 87.744 310.580, 88.109 311.442, 88.425 311.758 C 89.813 313.146, 88.790 308.722, 85.346 298.446 L 81.641 287.391 71.571 285.185 C 54.846 281.522, 56.224 281.728, 58.404 283.208" stroke="none" fill="black" fill-rule="evenodd"/>
</svg>